<svg width="31" height="31" viewBox="0 0 31 31" fill="none" xmlns="http://www.w3.org/2000/svg">
<path fill-rule="evenodd" clip-rule="evenodd" d="M15.2418 30.0784C23.5129 30.0784 30.218 23.3733 30.218 15.1022C30.218 6.83105 23.5129 0.125977 15.2418 0.125977C6.97069 0.125977 0.265625 6.83105 0.265625 15.1022C0.265625 23.3733 6.97069 30.0784 15.2418 30.0784ZM22.7442 7.12598L16.7878 13.9009H16.7875L23.2656 23.126H18.5013L14.1388 16.9138L8.67717 23.126H7.26562L13.5122 16.0214L7.26562 7.12598H12.03L16.1608 13.0085L21.3327 7.12598H22.7442ZM14.2216 15.214L14.8545 16.0998V16.1002L19.1653 22.1335H21.3334L16.0507 14.7397L15.4178 13.8539L11.3538 8.16572H9.18577L14.2216 15.214Z" fill="white"/>
</svg>
