<svg width="141" height="42" viewBox="0 0 141 42" fill="none" xmlns="http://www.w3.org/2000/svg">
<path d="M70.9987 15.707C70.6791 16.012 70.3947 16.1805 70.2573 16.4315C69.2955 18.1728 69.0366 20.092 69.0175 22.0271C68.9695 26.9236 69.0047 31.8234 68.9983 36.7199C68.9983 39.2842 67.4197 41.1525 65.0071 41.4735C62.5241 41.8007 60.1946 40.2438 59.6034 37.8003C59.45 37.1711 59.4213 36.5007 59.4181 35.8524C59.4053 30.886 59.4117 25.9195 59.4117 20.9531C59.4117 15.707 55.0657 11.2617 49.7579 11.0742C44.4022 10.8835 39.7367 14.9317 39.4268 20.2095C39.1999 24.048 38.5256 27.7085 36.5412 31.083C31.3612 39.8815 19.9244 43.202 10.8139 38.5088C-0.821057 32.5129 -3.62355 17.8042 5.13863 8.1763C10.6765 2.09136 21.1323 -0.577749 29.4886 4.56347C30.5751 5.23392 31.5849 6.0283 32.6299 6.76548C33.2658 7.21351 33.3233 7.69967 32.8312 8.332C31.1503 10.4705 29.837 12.7996 29.1947 15.4687C29.1403 15.6911 28.8272 16.0502 28.7281 16.0216C28.4309 15.9358 28.1114 15.7451 27.9228 15.5005C26.4081 13.559 24.4908 12.1831 22.1037 11.5572C16.4956 10.0892 10.6318 13.9181 9.71144 19.5963C9.05316 23.6667 10.8778 27.6735 14.361 29.8056C17.7802 31.8964 22.3818 31.7312 25.6412 29.3354C28.5428 27.2032 29.6964 24.2164 29.8018 20.7179C29.9903 14.4646 32.6171 9.38693 37.5861 5.61205C45.3801 -0.310838 55.8966 0.378682 62.9587 7.15314C63.0099 7.2008 63.0546 7.25482 63.1025 7.30248C63.8929 8.06932 64.6673 8.06403 65.4257 7.2866C67.5667 5.09093 70.104 3.47994 73.0279 2.57752C79.8344 0.477185 86.0305 1.74184 91.6035 6.12363C91.7921 6.27297 91.9742 6.43185 92.1787 6.60661C93.2876 5.72008 94.3389 4.77318 95.4893 3.97563C100.104 0.769516 105.229 -0.0471048 110.662 1.09362C119.533 2.95247 126.026 10.9121 126.029 20.3303C126.029 23.7461 126.074 27.1588 126.029 30.5746C126.016 31.5247 126.368 31.9314 127.259 31.906C128.295 31.8774 129.327 31.8265 130.359 31.7376C131.158 31.6708 131.398 31.2069 131.394 30.3998C131.366 22.4656 131.375 14.5345 131.382 6.60025C131.382 3.80086 133.024 2.23753 135.862 2.17715C137.578 2.13902 139.201 2.34556 140.128 3.94068C140.588 4.73505 140.879 5.7455 140.888 6.6638C140.968 13.9054 141.067 21.1501 140.949 28.3885C140.869 33.1039 138.958 37.0154 134.523 39.1857C129.864 41.4671 125.217 41.3464 121.015 38.0894C117.976 35.7349 116.538 32.4461 116.449 28.6268C116.382 25.7988 116.436 22.9708 116.417 20.1428C116.385 15.7674 113.682 11.9702 109.623 10.5721C105.597 9.18675 101.12 10.5721 98.3717 14.042C97.8924 14.6457 97.755 15.2081 97.9147 16.0248C98.295 17.9789 98.6433 19.9681 98.688 21.9508C98.7999 26.984 98.7424 32.0204 98.736 37.0567C98.736 37.4984 98.6945 37.9623 98.557 38.3786C97.9243 40.32 97.0072 40.7681 95.1474 39.9864C91.5205 38.4612 89.4721 35.7571 89.3347 31.8138C89.2101 28.2645 89.2356 24.7089 89.2229 21.1596C89.2069 16.155 85.6215 12.4532 81.5695 11.3761C77.9714 10.4196 73.5967 11.8463 71.395 14.7506C71.1681 15.0493 71.101 15.4687 71.0083 15.7102L70.9987 15.707Z" fill="white"/>
</svg>
